{"title":"BBC Africa E03 Congo 2013 1080p x264 AC3 - alrmothe","uid":8637281,"size":6042963942,"categoryP":"video","categoryS":"hd___movies","magnet":"?xt=urn:btih:edbeb3348662f35339232fc179d5dcef3a83f8c0&amp;dn=BBC+Africa+E03+Congo+2013+1080p+x264+AC3+-+alrmothe&amp;tr=udp%3A%2F%2Ftracker.openbittorrent.com%3A80&amp;tr=udp%3A%2F%2Fopen.demonii.com%3A1337&amp;tr=udp%3A%2F%2Ftracker.coppersurfer.tk%3A6969&amp;tr=udp%3A%2F%2Fexodus.desync.com%3A6969","seeders":5,"leechers":2,"uploader":".alrmothe","files":21,"time":1372790874,"description":"***************************************************************\n\nBBC Africa E03 Congo 2013 1080p x264 AC3 - alrmothe\n\n***************************************************************\n\nTitle : BBC David Attenborough's Africa \nYEAR: 2013\nGENRE : Documentary    \nimdb URL :http://www.imdb.com/title/tt2571774/\nFormat: Matroska\nOverall bit rate:14 Mbps\nFormat version: Version 4 / Version 2\nFile size:  5.63 GiB\nDuration: 57mn 21s\n\n***************************************************************\n\nVideo\nFormat : AVC \nFormat/Info : Advanced Video Codec \nFormat profile : &lt;a class=&quot;__cf_email__&quot; href=&quot;/cdn-cgi/l/email-protection&quot; data-cfemail=&quot;7830111f1038344c5649&quot;&gt;[email&amp;#160;protected]&lt;/a&gt;&lt;script cf-hash='f9e31' type=&quot;text/javascript&quot;&gt;\n/* &lt;![CDATA[ */!function(){try{var t=&quot;currentScript&quot;in document?document.currentScript:function(){for(var t=document.getElementsByTagName(&quot;script&quot;),e=t.length;e--;)if(t[e].getAttribute(&quot;cf-hash&quot;))return t[e]}();if(t&amp;&amp;t.previousSibling){var e,r,n,i,c=t.previousSibling,a=c.getAttribute(&quot;data-cfemail&quot;);if(a){for(e=&quot;&quot;,r=parseInt(a.substr(0,2),16),n=2;a.length-n;n+=2)i=parseInt(a.substr(n,2),16)^r,e+=String.fromCharCode(i);e=document.createTextNode(e),c.parentNode.replaceChild(e,c)}}}catch(u){}}();/* ]]&gt; */&lt;/script&gt; \nFormat settings, CABAC : Yes \nFormat settings, ReFrames : 4 frames  \nCodec ID : V_MPEG4/ISO/AVC  \nBit rate :13.4 Mbps \nWidth : 1920 pixels \nHeight :1080 pixels \nDisplay aspect ratio : 16:9 \nFrame rate : 25 fps \nColor space : YUV \nChroma subsampling : 4:2:0 \nBit depth : 8 bits \nScan type : Progressive \nBits/(Pixel*Frame) : 0.258 \nStream size: 5.26 GiB \n\n\nAudio#1 \nFormat: AC3\nBit rate :640 Kbps\nChannel(s) : 6 channels\nChannel positions:Front: L C R, Side: L R, LFE\nSampling rate: 48.0 KHz\nBit depth: 16bits\nCompression mode: Lossy\nStream size: 263 GiB\nLanguage : English\n\n\nsub : Arabic,English\n\n***************************************************************\n\n\n\nScreenshots\n &lt;a href=&quot;\nhttp://img854.imageshack.us/img854/8545/8ydm.png&quot; rel=&quot;nofollow&quot; target=&quot;_NEW&quot;&gt;\nhttp://img854.imageshack.us/img854/8545/8ydm.png&lt;/a&gt; &lt;a href=&quot;\nhttp://img197.imageshack.us/img197/4664/19pb.png&quot; rel=&quot;nofollow&quot; target=&quot;_NEW&quot;&gt;\nhttp://img197.imageshack.us/img197/4664/19pb.png&lt;/a&gt; &lt;a href=&quot;\nhttp://img560.imageshack.us/img560/6081/el5.png&quot; rel=&quot;nofollow&quot; target=&quot;_NEW&quot;&gt;\nhttp://img560.imageshack.us/img560/6081/el5.png&lt;/a&gt; &lt;a href=&quot;\nhttp://img153.imageshack.us/img153/407/lbr4.png&quot; rel=&quot;nofollow&quot; target=&quot;_NEW&quot;&gt;\nhttp://img153.imageshack.us/img153/407/lbr4.png&lt;/a&gt; &lt;a href=&quot;\nhttp://img842.imageshack.us/img842/8706/zeq.png&quot; rel=&quot;nofollow&quot; target=&quot;_NEW&quot;&gt;\nhttp://img842.imageshack.us/img842/8706/zeq.png&lt;/a&gt; &lt;a href=&quot;\nhttp://img20.imageshack.us/img20/6052/vxl.png&quot; rel=&quot;nofollow&quot; target=&quot;_NEW&quot;&gt;\nhttp://img20.imageshack.us/img20/6052/vxl.png&lt;/a&gt; &lt;a href=&quot;\nhttp://img823.imageshack.us/img823/3310/x0i.png&quot; rel=&quot;nofollow&quot; target=&quot;_NEW&quot;&gt;\nhttp://img823.imageshack.us/img823/3310/x0i.png&lt;/a&gt; &lt;a href=&quot;\nhttp://img96.imageshack.us/img96/1594/08vz.png&quot; rel=&quot;nofollow&quot; target=&quot;_NEW&quot;&gt;\nhttp://img96.imageshack.us/img96/1594/08vz.png&lt;/a&gt; &lt;a href=&quot;\nhttp://img221.imageshack.us/img221/2153/tuws.png&quot; rel=&quot;nofollow&quot; target=&quot;_NEW&quot;&gt;\nhttp://img221.imageshack.us/img221/2153/tuws.png&lt;/a&gt;","torrent":{"xt":"urn:btih:edbeb3348662f35339232fc179d5dcef3a83f8c0","amp;dn":"BBC+Africa+E03+Congo+2013+1080p+x264+AC3+-+alrmothe","amp;tr":["udp%3A%2F%2Ftracker.openbittorrent.com%3A80","udp%3A%2F%2Fopen.demonii.com%3A1337","udp%3A%2F%2Ftracker.coppersurfer.tk%3A6969","udp%3A%2F%2Fexodus.desync.com%3A6969"],"infoHash":"edbeb3348662f35339232fc179d5dcef3a83f8c0","infoHashBuffer":{"type":"Buffer","data":[237,190,179,52,134,98,243,83,57,35,47,193,121,213,220,239,58,131,248,192]},"announce":[],"urlList":[]}}